# xmcd CD database file
#
# Track frame offsets:
#	150
#	9805
#	21292
#	34392
#	40477
#	49987
#	57274
#	69816
#	78743
#	87295
#
# Disc length: 1333 seconds
#
# Revision: 0
# Processed by: cddbd v1.5.2PL0 Copyright (c) Steve Scherf et al.
# Submitted via: CDex 1.51
#
DISCID=7c05330a
DTITLE=Mike Arledge - Mike Arledge Brings Back The Old 97'
DYEAR=2006
DGENRE=Country
TTITLE0=Truck Drivin' Man
TTITLE1=Got No Reason Now For Goin' Home
TTITLE2=Invitation to The Blues
TTITLE3=Foggy Mountain Breakdown
TTITLE4=Kiss an Angel Good Morning
TTITLE5=Walk, Don't Run
TTITLE6=Chase Each other Around The Room tonight
TTITLE7=Old 97
TTITLE8=Under The Double Eagle
TTITLE9=Folsom Prison Blues and Ring Of Fire
EXTD=YEAR: 2006
EXTT0=
EXTT1=
EXTT2=
EXTT3=
EXTT4=
EXTT5=
EXTT6=
EXTT7=
EXTT8=
EXTT9=
PLAYORDER=
